<svg xmlns="http://www.w3.org/2000/svg" xmlns:xlink="http://www.w3.org/1999/xlink" version="1.1" x="0px" y="0px" viewBox="0 0 100 100" enable-background="new 0 0 100 100" xml:space="preserve"><g><path d="M81.588,39.625c-1.173,0-2.254,0.546-3.094,1.338c-1.068,1.007-1.522,3.098-2.939,3.629C73.961,42.063,75.901,24,74.688,24   c-4.145,0-8.289,0-12.434,0c-2.46,0-8.813,0.96-10.975-0.609c0.371-1.309,2.684-1.918,3.579-2.896   c0.901-0.984,1.414-2.293,1.217-3.635c-0.459-3.122-4.032-4.681-6.767-5.174c-3.225-0.581-6.991-0.206-9.744,1.7   c-2.452,1.696-3.362,4.803-1.178,7.153c1.058,1.139,5.421,2.943,1.891,3.355C38.897,24.055,37.483,24,36.095,24   c-4.22,0-8.439,0-12.658,0c-1.368,0-2.736,0-4.104,0C18.665,24,19,25.155,19,25.698c0,4.145,0,8.29,0,12.435   c0,2.437-0.792,6.446,0.791,8.33c1.454,1.729,3.979,0.994,5.469-0.263c1.648-1.39,3.104-5.797,5.199-2.07   c1.588,2.825,1.588,7.074,0,9.9c-2.077,3.694-3.492-0.62-5.171-1.961c-0.905-0.722-2.367-1.447-3.583-1.171   C20.953,51.196,19,52.387,19,53.379c0,1.547,0,3.093,0,4.64c0,6.959,0,13.919,0,20.878C19,79.393,18.749,80,19.313,80   c1.462,0,2.924,0,4.385,0c4.259,0,8.519,0,12.778,0c2.541,0,5.708,0.556,7.977-0.628c1.43-0.746,1.723-1.819,1.487-3.283   c-0.195-1.208-1.116-2.563-2.13-3.218c-0.892-0.577-3.138-1.284-2.619-2.805c0.945-2.767,6.15-2.814,8.358-2.47   c2.311,0.36,6.832,2.556,3.01,4.699c-2.131,1.196-4.159,3.594-2.31,5.956C51.627,80.014,52.741,80,54.768,80   c6.574,0,13.147,0,19.721,0C75.627,80,75,75.11,75,74.13c0-4.334,0-8.668,0-13.002c0-1.018,0-2.036,0-3.054   c0-1.177-0.295-5.225,1.693-3.424c1.123,2.527,3.688,4.867,6.597,3.558c2.981-1.342,4.097-5.199,4.271-8.178   C87.775,46.37,86.423,39.625,81.588,39.625z M81.588,55.579c-1.615,0-2.183-2.618-3.301-3.511   c-1.569-1.252-3.466-1.648-5.048-0.273C71.382,53.409,72,55.765,72,58.021c0,4.685,0,9.368,0,14.053c0,1.635,0,3.27,0,4.904   C72,77.023,67.315,77,67.003,77c-2.799,0-5.599,0-8.397,0c-1.787,0-4.877,0.443-6.326-0.609c0.372-1.309,2.684-1.918,3.579-2.896   c0.901-0.984,1.414-2.294,1.217-3.635c-0.459-3.123-4.032-4.682-6.767-5.175c-3.225-0.581-6.991-0.205-9.744,1.699   c-2.452,1.696-3.362,4.803-1.178,7.153c1.058,1.14,5.421,2.944,1.891,3.355C39.847,77.061,38.378,77,36.939,77   c-4.163,0-8.325,0-12.487,0C24.296,77,22,77.024,22,76.979c0-1.163,0-2.325,0-3.487c0-4.277,0-8.554,0-12.83   c0-0.887-0.016-1.774,0-2.661c0-1.155,0-2.431,0.392-3.537c0.514-1.452,1.834,1.255,2.136,1.692   c1.581,2.293,4.465,3.256,6.791,1.423c2.702-2.13,3.432-6.167,3.242-9.403c-0.175-2.979-1.29-6.837-4.271-8.179   c-1.411-0.635-2.992-0.404-4.232,0.497c-1.411,1.024-1.917,3.505-3.504,4.098C21.092,42.257,22,36.588,22,34   c0-1.917,0-3.833,0-5.75c0-1.122-0.261-1.25,0.848-1.25c4.037,0,8.073,0,12.109,0c2.65,0,6.134,0.604,8.496-0.628   c1.43-0.746,1.723-1.82,1.487-3.283c-0.195-1.208-1.116-2.563-2.13-3.218c-0.892-0.576-3.138-1.284-2.619-2.804   c0.945-2.767,6.15-2.814,8.358-2.47c2.311,0.36,6.832,2.556,3.01,4.699c-2.131,1.196-4.159,3.594-2.31,5.956   C50.627,27.014,51.74,27,53.768,27c2.876,0,5.751,0,8.627,0c2.385,0,4.77,0,7.154,0C70.26,27,72,26.552,72,27.433   c0,4.378,0,8.756,0,13.135c0,1.469,0,2.938,0,4.408c0,3.536,4.756,2.494,6.26,1.224c1.158-0.977,1.432-2.877,2.843-3.509   c1.531-0.686,2.597,1.745,2.941,2.791C84.697,47.464,85.284,55.579,81.588,55.579z"/></g></svg>
