<svg xmlns="http://www.w3.org/2000/svg" xmlns:xlink="http://www.w3.org/1999/xlink" version="1.1" x="0px" y="0px" viewBox="0 0 100 100" enable-background="new 0 0 100 100" xml:space="preserve"><g><g><path d="M-3173.395,76.667c-0.852,0-1.641-0.548-1.909-1.404c-0.329-1.054,0.258-2.176,1.313-2.505l18.167-5.675    c1.055-0.329,2.176,0.259,2.505,1.313c0.329,1.054-0.258,2.176-1.313,2.505l-18.167,5.675    C-3172.997,76.638-3173.198,76.667-3173.395,76.667z"/></g><g><path d="M-3195.593,76.667c-0.197,0-0.398-0.029-0.597-0.091l-18.167-5.675c-1.055-0.33-1.642-1.451-1.313-2.505    c0.33-1.055,1.451-1.645,2.505-1.313l18.167,5.675c1.055,0.33,1.642,1.451,1.313,2.505    C-3193.952,76.119-3194.741,76.667-3195.593,76.667z"/></g></g><g><g><path d="M-3173.395,65.19c-0.852,0-1.641-0.548-1.909-1.404c-0.329-1.054,0.259-2.176,1.313-2.505l18.167-5.674    c1.055-0.33,2.176,0.259,2.505,1.313c0.329,1.054-0.259,2.176-1.313,2.505l-18.167,5.674    C-3172.997,65.161-3173.198,65.19-3173.395,65.19z"/></g><g><path d="M-3195.593,65.19c-0.197,0-0.398-0.029-0.597-0.091l-18.167-5.674c-1.054-0.33-1.642-1.451-1.313-2.505    c0.33-1.055,1.451-1.643,2.505-1.313l18.167,5.674c1.054,0.33,1.642,1.451,1.313,2.505    C-3193.952,64.642-3194.741,65.19-3195.593,65.19z"/></g></g><g><g><path d="M-3173.395,53.713c-0.852,0-1.641-0.548-1.909-1.404c-0.329-1.054,0.259-2.176,1.313-2.505l18.167-5.674    c1.055-0.331,2.176,0.259,2.505,1.313c0.329,1.054-0.259,2.176-1.313,2.505l-18.167,5.674    C-3172.997,53.684-3173.198,53.713-3173.395,53.713z"/></g><g><path d="M-3195.593,53.713c-0.197,0-0.398-0.029-0.597-0.091l-18.167-5.674c-1.054-0.33-1.642-1.451-1.313-2.505    c0.33-1.055,1.451-1.644,2.505-1.313l18.167,5.674c1.054,0.33,1.642,1.451,1.313,2.505    C-3193.952,53.165-3194.741,53.713-3195.593,53.713z"/></g></g><g><g><path d="M-3173.395,42.237c-0.852,0-1.641-0.548-1.909-1.404c-0.329-1.054,0.258-2.176,1.313-2.505l18.167-5.675    c1.055-0.331,2.176,0.259,2.505,1.313c0.329,1.054-0.258,2.176-1.313,2.505l-18.167,5.675    C-3172.997,42.208-3173.198,42.237-3173.395,42.237z"/></g><g><path d="M-3195.593,42.237c-0.197,0-0.398-0.029-0.597-0.091l-18.167-5.675c-1.055-0.33-1.642-1.451-1.313-2.505    c0.33-1.054,1.451-1.644,2.505-1.313l18.167,5.675c1.055,0.33,1.642,1.451,1.313,2.505    C-3193.952,41.688-3194.741,42.237-3195.593,42.237z"/></g></g><g><path d="M-3141.89,9.99c-0.77-0.57-1.76-0.73-2.67-0.45l-39.57,12.36l-39.57-12.36c-0.91-0.28-1.9-0.12-2.67,0.45   c-0.77,0.56-1.22,1.46-1.22,2.41v69.8c0,1.32,0.85,2.48,2.1,2.87l40.47,12.64c0.06,0.02,0.11,0.03,0.17,0.04   c0.06,0.02,0.12,0.03,0.18,0.04c0.08,0.01,0.15,0.03,0.22,0.03c0.11,0.01,0.21,0.02,0.32,0.02s0.21-0.01,0.32-0.02   c0.07,0,0.15-0.02,0.23-0.03c0.05-0.01,0.1-0.02,0.15-0.03c0.07-0.01,0.13-0.03,0.2-0.05l40.46-12.64c1.25-0.39,2.1-1.55,2.1-2.87   V12.4C-3140.67,11.45-3141.12,10.55-3141.89,9.99z M-3221.59,16.48l34.46,10.77v63.51L-3221.59,80V16.48z M-3146.67,80   l-34.46,10.76V27.25l34.46-10.77V80z"/></g><g><path d="M94.968,26.136c-0.021-0.147-0.053-0.284-0.105-0.421c-0.042-0.137-0.095-0.263-0.148-0.379   c-0.011-0.021-0.021-0.032-0.032-0.053c-0.063-0.105-0.126-0.211-0.2-0.305c-0.074-0.105-0.158-0.211-0.253-0.305   c-0.074-0.063-0.148-0.126-0.221-0.19c-0.053-0.053-0.105-0.095-0.169-0.126c-0.326-0.221-0.695-0.369-1.095-0.421   c-0.127-0.021-0.253-0.032-0.379-0.032H7.633c-0.126,0-0.253,0.011-0.379,0.032c-0.4,0.053-0.769,0.2-1.095,0.421   c-0.063,0.032-0.116,0.074-0.169,0.126c-0.158,0.126-0.295,0.263-0.421,0.421c-0.042,0.042-0.074,0.095-0.105,0.147   c-0.2,0.284-0.337,0.611-0.411,0.958c-0.021,0.084-0.032,0.168-0.042,0.253C5,26.357,5,26.442,5,26.536v46.927   c0,0.158,0.011,0.316,0.042,0.463c0.032,0.158,0.063,0.305,0.126,0.453c0.042,0.137,0.105,0.263,0.179,0.39   c0.126,0.221,0.274,0.411,0.453,0.59c0.053,0.042,0.105,0.095,0.158,0.137c0.063,0.053,0.126,0.105,0.2,0.147   c0.421,0.284,0.927,0.453,1.474,0.453h84.734c0.137,0,0.274-0.011,0.4-0.032c0.116-0.021,0.232-0.042,0.337-0.074   c0.021-0.01,0.053-0.01,0.074-0.021c0.116-0.042,0.221-0.084,0.327-0.126c0.116-0.063,0.232-0.126,0.337-0.2   c0.074-0.042,0.137-0.095,0.2-0.147c0.053-0.042,0.105-0.095,0.158-0.137c0.137-0.137,0.263-0.284,0.358-0.442   c0.042-0.042,0.074-0.105,0.105-0.158c0-0.011,0.01-0.011,0.01-0.021c0.063-0.105,0.116-0.221,0.148-0.337   c0.011-0.011,0.021-0.032,0.021-0.042c0.042-0.116,0.084-0.242,0.105-0.369c0-0.021,0.011-0.042,0.011-0.074   c0-0.011,0-0.021,0.011-0.032c0.021-0.137,0.032-0.263,0.032-0.4c0-0.01,0-0.01,0-0.021V26.536   C95,26.399,94.989,26.263,94.968,26.136z M84.437,29.169L62.121,45.83c-0.084,0.053-0.147,0.105-0.221,0.168L50,54.865l-11.9-8.867   c-0.074-0.063-0.137-0.116-0.221-0.168l-22.316-16.66H84.437z M10.266,31.791l21.905,16.345L10.266,67.598V31.791z M14.562,70.831   l21.926-19.483l11.932,8.909c0.474,0.348,1.022,0.527,1.58,0.527s1.106-0.179,1.569-0.527l11.943-8.909l21.926,19.483H14.562z    M89.734,67.598L67.819,48.136l21.916-16.345V67.598z"/></g></svg>
