<svg xmlns="http://www.w3.org/2000/svg" xmlns:xlink="http://www.w3.org/1999/xlink" version="1.1" x="0px" y="0px" viewBox="0 0 100 100" enable-background="new 0 0 100 100" xml:space="preserve"><g><path d="M11.3,24.2l34,22.5c2.4,1.6,2.4,5.1,0,6.6l-34,22.5C8.6,77.6,5,75.7,5,72.5v-45C5,24.3,8.6,22.4,11.3,24.2z"/></g><g><path d="M91,14H9c-2.2,0-4-1.8-4-4v0c0-2.2,1.8-4,4-4h82c2.2,0,4,1.8,4,4v0C95,12.2,93.2,14,91,14z"/></g><g><path d="M91,94H9c-2.2,0-4-1.8-4-4v0c0-2.2,1.8-4,4-4h82c2.2,0,4,1.8,4,4v0C95,92.2,93.2,94,91,94z"/></g><g><path d="M95,50c0,2.2-1.8,4-4,4H60c-2.2,0-4-1.8-4-4v0c0-2.2,1.8-4,4-4h31C93.2,46,95,47.8,95,50L95,50z"/></g><g><path d="M95,70c0,2.2-1.8,4-4,4H43c-2.2,0-4-1.8-4-4v0c0-2.2,1.8-4,4-4h48C93.2,66,95,67.8,95,70L95,70z"/></g><g><path d="M95,30c0,2.2-1.8,4-4,4H43c-2.2,0-4-1.8-4-4v0c0-2.2,1.8-4,4-4h48C93.2,26,95,27.8,95,30L95,30z"/></g></svg>
